HIERARCHY
ROOT Hips
{
	OFFSET 0.000000 121.760803 0.000000
	CHANNELS 6 Xposition Yposition Zposition Xrotation Yrotation Zrotation 
	JOINT Spine
	{
		OFFSET 0.072000 7.257294 -0.789700
		CHANNELS 3 Xrotation Yrotation Zrotation
		JOINT Spine1
		{
			OFFSET 0.000000 12.508769 -0.658067
			CHANNELS 3 Xrotation Yrotation Zrotation
			JOINT Spine1_split
			{
				OFFSET 0.000000 12.508769 -0.658067
				CHANNELS 3 Xrotation Yrotation Zrotation
				JOINT Spine2
				{
					OFFSET 0.000000 12.508769 -0.658067
					CHANNELS 3 Xrotation Yrotation Zrotation
					JOINT Neck
					{
						OFFSET 0.000000 14.033295 7.520400
						CHANNELS 3 Xrotation Yrotation Zrotation
						JOINT Head
						{
							OFFSET 0.000000 8.198502 5.703100
							CHANNELS 3 Xrotation Yrotation Zrotation
							JOINT HeadTop_End
							{
								OFFSET 0.000000 17.760803 13.332701
								CHANNELS 3 Xrotation Yrotation Zrotation
								End Site
								{
									OFFSET 0.000000 0.000000 0.000000
								}
							}
						}
					}
					JOINT LeftShoulder
					{
						OFFSET 6.292450 5.785301 -0.669000
						CHANNELS 3 Xrotation Yrotation Zrotation
						JOINT LeftShoulder_split
						{
							OFFSET 6.292450 5.785301 -0.669000
							CHANNELS 3 Xrotation Yrotation Zrotation
							JOINT LeftArm
							{
								OFFSET 13.907140 -6.093903 1.965100
								CHANNELS 3 Xrotation Yrotation Zrotation
								JOINT LeftForeArm
								{
									OFFSET 34.140198 0.000000 0.000000
									CHANNELS 3 Xrotation Yrotation Zrotation
									JOINT LeftHand
									{
										OFFSET 40.960209 0.000000 0.000000
										CHANNELS 3 Xrotation Yrotation Zrotation
										JOINT LeftHandThumb1
										{
											OFFSET 10.006996 -7.170425 9.573125
											CHANNELS 3 Xrotation Yrotation Zrotation
											JOINT LeftHandThumb2
											{
												OFFSET 1.835007 -1.059448 1.059443
												CHANNELS 3 Xrotation Yrotation Zrotation
												JOINT LeftHandThumb3
												{
													OFFSET 2.112267 -1.219513 1.219518
													CHANNELS 3 Xrotation Yrotation Zrotation
													JOINT LeftHandThumb4
													{
														OFFSET 4.843811 -2.796570 2.796576
														CHANNELS 3 Xrotation Yrotation Zrotation
														End Site
														{
															OFFSET 0.000000 0.000000 0.000000
														}
													}
												}
											}
										}
										JOINT LeftHandIndex1
										{
											OFFSET 18.389847 -0.922348 4.596882
											CHANNELS 3 Xrotation Yrotation Zrotation
											JOINT LeftHandIndex2
											{
												OFFSET 4.711273 0.000000 0.000000
												CHANNELS 3 Xrotation Yrotation Zrotation
												JOINT LeftHandIndex3
												{
													OFFSET 2.886131 0.000000 0.000000
													CHANNELS 3 Xrotation Yrotation Zrotation
													JOINT LeftHandIndex4
													{
														OFFSET 6.145912 0.000000 0.000000
														CHANNELS 3 Xrotation Yrotation Zrotation
														End Site
														{
															OFFSET 0.000000 0.000000 0.000000
														}
													}
												}
											}
										}
										JOINT LeftHandMiddle1
										{
											OFFSET 18.013008 0.000000 0.000000
											CHANNELS 3 Xrotation Yrotation Zrotation
											JOINT LeftHandMiddle2
											{
												OFFSET 4.946693 0.000000 0.000000
												CHANNELS 3 Xrotation Yrotation Zrotation
												JOINT LeftHandMiddle3
												{
													OFFSET 3.342232 0.000000 0.000000
													CHANNELS 3 Xrotation Yrotation Zrotation
													JOINT LeftHandMiddle4
													{
														OFFSET 4.461754 0.000000 0.000000
														CHANNELS 3 Xrotation Yrotation Zrotation
														End Site
														{
															OFFSET 0.000000 0.000000 0.000000
														}
													}
												}
											}
										}
										JOINT LeftHandRing1
										{
											OFFSET 15.849892 -0.102921 -4.126150
											CHANNELS 3 Xrotation Yrotation Zrotation
											JOINT LeftHandRing2
											{
												OFFSET 3.527054 0.000000 0.000000
												CHANNELS 3 Xrotation Yrotation Zrotation
												JOINT LeftHandRing3
												{
													OFFSET 2.961098 0.000000 0.000000
													CHANNELS 3 Xrotation Yrotation Zrotation
													JOINT LeftHandRing4
													{
														OFFSET 4.927200 0.000000 0.000000
														CHANNELS 3 Xrotation Yrotation Zrotation
														End Site
														{
															OFFSET 0.000000 0.000000 0.000000
														}
													}
												}
											}
										}
										JOINT LeftHandPinky1
										{
											OFFSET 12.791824 -0.832031 -6.799156
											CHANNELS 3 Xrotation Yrotation Zrotation
											JOINT LeftHandPinky2
											{
												OFFSET 3.327133 0.000000 0.000000
												CHANNELS 3 Xrotation Yrotation Zrotation
												JOINT LeftHandPinky3
												{
													OFFSET 3.014900 0.000000 0.000000
													CHANNELS 3 Xrotation Yrotation Zrotation
													JOINT LeftHandPinky4
													{
														OFFSET 5.847786 0.000000 0.000000
														CHANNELS 3 Xrotation Yrotation Zrotation
														End Site
														{
															OFFSET 0.000000 0.000000 0.000000
														}
													}
												}
											}
										}
									}
								}
							}
						}
					}
					JOINT RightShoulder
					{
						OFFSET -6.292450 5.785301 -0.669000
						CHANNELS 3 Xrotation Yrotation Zrotation
						JOINT RightShoulder_split
						{
							OFFSET -6.292450 5.785301 -0.669000
							CHANNELS 3 Xrotation Yrotation Zrotation
							JOINT RightArm
							{
								OFFSET -13.907140 -6.093903 1.965100
								CHANNELS 3 Xrotation Yrotation Zrotation
								JOINT RightForeArm
								{
									OFFSET -34.140198 0.000000 0.000000
									CHANNELS 3 Xrotation Yrotation Zrotation
									JOINT RightHand
									{
										OFFSET -40.960209 0.000000 0.000000
										CHANNELS 3 Xrotation Yrotation Zrotation
										JOINT RightHandThumb1
										{
											OFFSET -10.007050 -7.170456 9.573117
											CHANNELS 3 Xrotation Yrotation Zrotation
											JOINT RightHandThumb2
											{
												OFFSET -1.835007 -1.059448 1.059443
												CHANNELS 3 Xrotation Yrotation Zrotation
												JOINT RightHandThumb3
												{
													OFFSET -2.112267 -1.219513 1.219518
													CHANNELS 3 Xrotation Yrotation Zrotation
													JOINT RightHandThumb4
													{
														OFFSET -4.843834 -2.796585 2.796590
														CHANNELS 3 Xrotation Yrotation Zrotation
														End Site
														{
															OFFSET 0.000000 0.000000 0.000000
														}
													}
												}
											}
										}
										JOINT RightHandIndex1
										{
											OFFSET -18.389870 -0.922424 4.596786
											CHANNELS 3 Xrotation Yrotation Zrotation
											JOINT RightHandIndex2
											{
												OFFSET -4.711273 0.000000 0.000000
												CHANNELS 3 Xrotation Yrotation Zrotation
												JOINT RightHandIndex3
												{
													OFFSET -2.886131 0.000000 0.000000
													CHANNELS 3 Xrotation Yrotation Zrotation
													JOINT RightHandIndex4
													{
														OFFSET -6.145920 0.000000 0.000000
														CHANNELS 3 Xrotation Yrotation Zrotation
														End Site
														{
															OFFSET 0.000000 0.000000 0.000000
														}
													}
												}
											}
										}
										JOINT RightHandMiddle1
										{
											OFFSET -18.013008 0.000000 0.000000
											CHANNELS 3 Xrotation Yrotation Zrotation
											JOINT RightHandMiddle2
											{
												OFFSET -4.946693 0.000000 0.000000
												CHANNELS 3 Xrotation Yrotation Zrotation
												JOINT RightHandMiddle3
												{
													OFFSET -3.342232 0.000000 0.000000
													CHANNELS 3 Xrotation Yrotation Zrotation
													JOINT RightHandMiddle4
													{
														OFFSET -4.461754 0.000000 0.000000
														CHANNELS 3 Xrotation Yrotation Zrotation
														End Site
														{
															OFFSET 0.000000 0.000000 0.000000
														}
													}
												}
											}
										}
										JOINT RightHandRing1
										{
											OFFSET -15.849876 -0.102936 -4.126237
											CHANNELS 3 Xrotation Yrotation Zrotation
											JOINT RightHandRing2
											{
												OFFSET -3.527054 0.000000 0.000000
												CHANNELS 3 Xrotation Yrotation Zrotation
												JOINT RightHandRing3
												{
													OFFSET -2.961098 0.000000 0.000000
													CHANNELS 3 Xrotation Yrotation Zrotation
													JOINT RightHandRing4
													{
														OFFSET -4.927200 0.000000 0.000000
														CHANNELS 3 Xrotation Yrotation Zrotation
														End Site
														{
															OFFSET 0.000000 0.000000 0.000000
														}
													}
												}
											}
										}
										JOINT RightHandPinky1
										{
											OFFSET -12.791786 -0.832077 -6.799222
											CHANNELS 3 Xrotation Yrotation Zrotation
											JOINT RightHandPinky2
											{
												OFFSET -3.327133 0.000000 0.000000
												CHANNELS 3 Xrotation Yrotation Zrotation
												JOINT RightHandPinky3
												{
													OFFSET -3.014900 0.000000 0.000000
													CHANNELS 3 Xrotation Yrotation Zrotation
													JOINT RightHandPinky4
													{
														OFFSET -5.847786 0.000000 0.000000
														CHANNELS 3 Xrotation Yrotation Zrotation
														End Site
														{
															OFFSET 0.000000 0.000000 0.000000
														}
													}
												}
											}
										}
									}
								}
							}
						}
					}
				}
			}
		}
	}
	JOINT LeftUpLeg
	{
		OFFSET 13.026900 -6.336304 -1.092800
		CHANNELS 3 Xrotation Yrotation Zrotation
		JOINT LeftLeg
		{
			OFFSET 0.524474 -46.096886 9.782700
			CHANNELS 3 Xrotation Yrotation Zrotation
			JOINT LeftFoot
			{
				OFFSET -0.524474 -53.427422 -12.948200
				CHANNELS 3 Xrotation Yrotation Zrotation
				JOINT LeftToeBase
				{
					OFFSET 0.192200 -14.009700 16.364100
					CHANNELS 3 Xrotation Yrotation Zrotation
					JOINT LeftToe_End
					{
						OFFSET -1.784700 -0.561700 9.474800
						CHANNELS 3 Xrotation Yrotation Zrotation
						End Site
						{
							OFFSET 0.000000 0.000000 0.000000
						}
					}
				}
			}
		}
	}
	JOINT RightUpLeg
	{
		OFFSET -12.883000 -6.336304 -1.092800
		CHANNELS 3 Xrotation Yrotation Zrotation
		JOINT RightLeg
		{
			OFFSET -0.524587 -46.096825 9.782800
			CHANNELS 3 Xrotation Yrotation Zrotation
			JOINT RightFoot
			{
				OFFSET 0.524587 -53.427383 -12.948300
				CHANNELS 3 Xrotation Yrotation Zrotation
				JOINT RightToeBase
				{
					OFFSET -0.192200 -14.009700 16.364100
					CHANNELS 3 Xrotation Yrotation Zrotation
					JOINT RightToe_End
					{
						OFFSET 1.784700 -0.561700 9.474800
						CHANNELS 3 Xrotation Yrotation Zrotation
						End Site
						{
							OFFSET 0.000000 0.000000 0.000000
						}
					}
				}
			}
		}
	}
}
MOTION
Frames: 4
Frame Time: 0.016667
0.042239 97.773643 -0.641373 -14.106043 4.502989 -0.369441 20.016377 0.029049 0.842137 6.967311 -0.338752 0.679832 0.000000 0.000000 0.000000 6.967508 -0.337003 0.677442 -12.249460 -1.248219 -0.496002 -16.116685 -1.754211 -0.002246 0.000000 0.000000 0.000000 3.082221 -9.945126 -6.811324 0.000000 0.000000 0.000000 -13.959245 -7.908235 -60.295257 69.634202 -63.509107 71.597048 17.167906 -2.491289 -13.648291 2.689265 3.159891 6.593323 -0.080947 21.143657 -2.540019 0.000002 -0.000016 0.000001 0.000000 -0.000003 0.000003 -10.621190 2.937300 -19.267716 1.676646 6.185713 -21.756492 0.000004 0.000005 0.000006 -0.000001 -0.000003 -0.000001 -13.823033 9.936977 -22.469214 6.049016 4.246399 -31.221959 0.000001 -0.000004 -0.000003 -0.000001 0.000001 -0.000000 -10.744681 8.325283 -36.571077 3.038190 0.221628 -39.078709 -0.000004 -0.000001 0.000002 -0.000001 0.000003 0.000002 -11.942427 9.095576 -39.265446 4.640675 -6.164084 -45.289308 0.000000 0.000003 -0.000001 -0.000000 0.000001 0.000000 8.709554 -2.418516 18.823134 0.000000 0.000000 0.000000 -21.494479 12.934322 56.855540 76.344187 65.516985 -70.724614 6.442925 -2.140721 3.544942 2.153178 -3.555308 -6.484359 -0.079177 -21.145982 2.540879 0.000008 -0.000012 -0.000014 0.000001 0.000001 -0.000002 -10.621233 -2.937095 19.269084 1.668972 -6.188782 21.755259 0.000013 -0.000002 -0.000007 -0.000002 -0.000003 0.000001 -13.688458 -10.244132 24.164181 6.044753 -4.250330 31.223349 0.000004 0.000002 0.000003 -0.000001 0.000002 -0.000001 -10.744619 -8.325824 36.570004 3.037670 -0.220803 39.079303 0.000022 0.000011 0.000001 -0.000001 -0.000001 -0.000001 -11.872861 -9.179261 39.251991 4.640912 6.162592 45.288840 0.000020 -0.000006 0.000005 0.000001 0.000001 0.000001 -20.766997 -3.179208 14.890839 56.529251 -0.553841 0.265985 -21.126327 -1.339514 -12.587099 -0.000065 -0.000001 -0.000001 0.000000 -0.000000 -0.000000 -16.919278 -8.830495 -16.722530 56.152167 0.213818 -0.369142 -23.940952 -3.841552 11.514596 -0.000104 0.000007 0.000001 -0.000000 0.000000 0.000000 
0.063591 97.707390 -0.583935 -14.111280 4.529151 -0.400462 20.015485 0.034182 0.864345 6.967178 -0.335987 0.689694 0.000000 0.000000 0.000000 6.967398 -0.333837 0.687154 -12.402453 -1.254037 -0.550726 -15.969520 -1.766949 -0.026611 -0.000000 0.000000 -0.000000 2.956829 -10.038400 -7.341126 0.000000 0.000000 0.000000 -14.073644 -7.895407 -59.003675 69.357224 -63.656052 70.461167 17.123242 -2.624939 -13.215293 2.689258 3.159892 6.593331 -0.287828 20.662239 -2.531888 0.000002 -0.000016 0.000005 0.000003 -0.000000 0.000002 -11.138176 2.712233 -18.389675 1.552186 5.861901 -19.735866 0.000002 0.000004 0.000001 0.000001 -0.000003 0.000000 -13.879088 10.042392 -21.846831 5.907030 4.051383 -29.917219 0.000003 -0.000007 -0.000002 0.000000 -0.000001 0.000001 -10.653143 8.348585 -36.293330 2.916220 0.076511 -38.156773 -0.000004 -0.000003 0.000001 -0.000002 0.000000 0.000000 -11.616292 8.724553 -38.572988 4.514731 -6.309765 -43.933351 -0.000002 0.000003 0.000000 -0.000001 -0.000002 0.000002 8.710150 -2.421085 18.860189 0.000000 0.000000 0.000000 -21.489469 12.863793 56.693685 76.539291 65.641799 -70.847449 6.461558 -2.179862 3.507923 2.153187 -3.555328 -6.484352 -0.610734 -20.410523 2.900123 0.000007 -0.000014 -0.000014 0.000005 0.000001 -0.000001 -10.520684 -3.668418 20.527768 1.742407 -6.421445 23.270927 0.000015 -0.000000 -0.000006 0.000001 -0.000000 -0.000001 -12.798078 -11.730796 26.093215 7.096439 -4.803695 37.106386 0.000002 0.000003 0.000004 -0.000000 -0.000005 -0.000001 -10.279116 -10.017702 38.435633 3.702661 -0.867348 43.457772 0.000025 0.000015 0.000001 -0.000001 0.000000 0.000001 -11.226715 -10.556378 39.654186 5.236511 5.735998 47.984777 0.000019 -0.000014 0.000007 -0.000000 -0.000002 -0.000002 -20.800771 -3.203971 14.932715 56.661583 -0.538662 0.267087 -21.223059 -1.384030 -12.600065 -0.000065 0.000000 -0.000001 0.000000 0.000000 0.000000 -16.911002 -8.849282 -16.725648 56.237110 0.216442 -0.369877 -24.019135 -3.843172 11.543322 -0.000104 0.000009 0.000001 0.000000 -0.000000 -0.000000 
0.104053 97.596184 -0.481342 -14.124590 4.606027 -0.457490 20.011276 0.044531 0.908815 6.966028 -0.327721 0.719249 0.000000 0.000000 0.000000 6.966380 -0.324709 0.716456 -12.555788 -1.289426 -0.611312 -15.824416 -1.789684 -0.122986 -0.000002 0.000000 0.000000 2.764796 -10.227418 -8.150478 0.000000 0.000000 0.000000 -14.313656 -7.958069 -56.721863 68.594340 -63.723343 67.966359 16.833727 -3.061344 -12.252572 2.689273 3.159889 6.593343 -0.630847 19.898814 -2.536178 0.000001 -0.000017 -0.000001 -0.000001 0.000001 -0.000000 -12.168911 1.722893 -16.142758 1.361321 5.271968 -16.144870 0.000006 0.000006 0.000001 -0.000000 -0.000000 0.000004 -13.999951 10.170338 -20.576860 5.654369 3.687280 -27.544194 0.000003 -0.000007 -0.000004 -0.000000 -0.000000 0.000001 -10.488792 8.375477 -35.525747 2.674433 -0.231039 -36.299645 -0.000004 -0.000008 -0.000003 0.000000 0.000000 0.000000 -11.042159 8.059833 -37.136172 4.281198 -6.560053 -41.506182 -0.000001 0.000001 0.000002 -0.000000 -0.000004 -0.000001 8.718468 -2.429203 18.921157 0.000000 0.000000 0.000000 -21.496053 12.656106 56.308301 77.004065 65.942560 -71.153113 6.484120 -2.258950 3.402535 2.153181 -3.555320 -6.484340 -1.483788 -19.373487 3.562832 0.000008 -0.000015 -0.000015 -0.000001 0.000000 -0.000001 -10.129363 -5.075095 23.066164 1.897906 -6.845657 26.077662 0.000014 0.000001 -0.000002 0.000000 -0.000001 0.000000 -11.051826 -14.266134 29.928304 8.898191 -5.409242 45.950753 0.000001 0.000001 0.000005 0.000001 -0.000001 -0.000001 -9.577511 -12.642718 41.718567 4.859887 -1.754941 50.235372 0.000022 0.000015 -0.000001 0.000000 -0.000001 -0.000001 -10.193564 -12.691875 40.965163 6.310993 5.065898 52.618039 0.000018 -0.000011 0.000007 -0.000001 0.000001 0.000000 -20.863325 -3.252043 15.004712 56.889339 -0.550228 0.268953 -21.387170 -1.452326 -12.599559 -0.000065 -0.000001 -0.000001 0.000000 -0.000000 -0.000000 -16.874392 -8.901027 -16.727804 56.371805 0.216094 -0.370908 -24.155908 -3.858834 11.598662 -0.000104 0.000009 0.000001 0.000000 0.000000 -0.000000 
0.147052 97.497101 -0.387306 -14.144377 4.719759 -0.509193 20.004292 0.058197 0.953112 6.959311 -0.313089 0.767878 0.000000 0.000000 0.000000 6.959684 -0.306489 0.764834 -12.549954 -1.367070 -0.625489 -15.846491 -1.813090 -0.313112 0.000000 0.000000 -0.000000 2.605478 -10.449068 -8.667087 0.000000 0.000000 0.000000 -14.613393 -8.282416 -54.611993 67.543925 -63.362545 64.922772 16.132881 -3.862278 -11.017631 2.689260 3.159892 6.593352 -0.900167 19.338180 -2.567393 0.000003 -0.000019 0.000004 0.000003 -0.000002 0.000004 -13.757840 -1.808870 -12.928984 1.209587 4.688489 -12.660387 0.000005 -0.000000 0.000006 -0.000002 -0.000000 0.000001 -14.161509 10.155896 -19.030978 5.407132 3.296437 -25.125408 0.000002 -0.000003 -0.000005 -0.000001 0.000002 -0.000002 -10.326082 8.356970 -34.230907 2.383926 -0.635123 -34.078805 -0.000004 -0.000007 -0.000002 -0.000001 -0.000001 0.000000 -10.519303 7.413644 -35.362539 4.024526 -6.770204 -39.148623 -0.000001 0.000002 -0.000002 0.000000 0.000004 -0.000001 8.730917 -2.444811 18.974038 0.000000 0.000000 0.000000 -21.553777 12.391525 55.888907 77.539156 66.277294 -71.520714 6.490349 -2.336622 3.273595 2.153183 -3.555314 -6.484348 -2.139633 -18.745797 4.295018 -0.000000 -0.000015 -0.000013 0.000001 0.000002 -0.000003 -9.428681 -6.650062 26.075067 2.076160 -7.264214 28.901952 0.000011 0.000001 -0.000005 0.000002 -0.000001 0.000001 -8.933273 -16.558095 34.446492 9.998507 -5.648549 51.048906 0.000002 0.000002 0.000006 0.000002 -0.000001 -0.000003 -9.304934 -14.241859 44.634586 5.737662 -2.268982 54.937722 0.000021 0.000013 0.000000 0.000000 0.000005 0.000003 -9.441456 -13.995627 43.355831 7.329725 4.554869 56.877987 0.000020 -0.000009 0.000009 0.000002 0.000001 0.000003 -20.912882 -3.359642 15.035475 57.098080 -0.561804 0.270696 -21.532054 -1.484290 -12.595676 -0.000065 -0.000000 -0.000001 0.000000 0.000001 0.000000 -16.811165 -8.960986 -16.722844 56.482601 0.215341 -0.371531 -24.282152 -3.910104 11.654181 -0.000104 0.000009 0.000001 -0.000000 -0.000000 0.000000 
